RobotoSerifMicro-SuperWideItalic.ufo
<glyph name="numbersign" format="2">
  <advance width="911"/>
  <unicode hex="0023"/>
  <outline>
    <contour>
      <point x="105" y="0" type="line"/>
      <point x="229" y="0" type="line"/>
      <point x="584" y="780" type="line"/>
      <point x="461" y="780" type="line"/>
    </contour>
    <contour>
      <point x="24" y="181" type="line"/>
      <point x="794" y="181" type="line"/>
      <point x="826" y="339" type="line"/>
      <point x="56" y="339" type="line"/>
    </contour>
    <contour>
      <point x="152" y="472" type="line"/>
      <point x="920" y="472" type="line"/>
      <point x="954" y="630" type="line"/>
      <point x="185" y="630" type="line"/>
    </contour>
    <contour>
      <point x="383" y="0" type="line"/>
      <point x="507" y="0" type="line"/>
      <point x="862" y="780" type="line"/>
      <point x="737" y="780" type="line"/>
    </contour>
  </outline>
</glyph>
<glyph name="P" format="2">
  <advance width="929"/>
  <unicode hex="0050"/>
  <outline>
    <contour>
      <point x="413" y="364" type="line"/>
      <point x="491" y="611" type="line"/>
      <point x="572" y="611" type="line"/>
      <point x="639" y="611"/>
      <point x="671" y="583"/>
      <point x="671" y="534" type="curve" smooth="yes"/>
      <point x="671" y="459"/>
      <point x="623" y="364"/>
      <point x="534" y="364" type="curve" smooth="yes"/>
    </contour>
    <contour>
      <point x="165" y="710" type="line"/>
      <point x="139" y="621" type="line"/>
      <point x="151" y="621" type="line" smooth="yes"/>
      <point x="187" y="621"/>
      <point x="211" y="614"/>
      <point x="202" y="585" type="curve" smooth="yes"/>
      <point x="59" y="126" type="line" smooth="yes"/>
      <point x="51" y="97"/>
      <point x="23" y="90"/>
      <point x="-14" y="90" type="curve" smooth="yes"/>
      <point x="-27" y="90" type="line"/>
      <point x="-53" y="0" type="line"/>
      <point x="398" y="0" type="line"/>
      <point x="429" y="101" type="line"/>
      <point x="398" y="101" type="line" smooth="yes"/>
      <point x="358" y="101"/>
      <point x="332" y="104"/>
      <point x="334" y="111" type="curve" smooth="yes"/>
      <point x="384" y="266" type="line"/>
      <point x="582" y="266" type="line" smooth="yes"/>
      <point x="778" y="266"/>
      <point x="941" y="343"/>
      <point x="941" y="516" type="curve" smooth="yes"/>
      <point x="941" y="636"/>
      <point x="833" y="710"/>
      <point x="621" y="710" type="curve"/>
    </contour>
  </outline>
</glyph>
<glyph name="underscore" format="2">
  <advance width="672"/>
  <unicode hex="005F"/>
  <outline>
    <contour>
      <point x="-4" y="-95" type="line"/>
      <point x="-32" y="-199" type="line"/>
      <point x="677" y="-199" type="line"/>
      <point x="704" y="-95" type="line"/>
    </contour>
  </outline>
</glyph>
<glyph name="q" format="2">
  <advance width="903"/>
  <unicode hex="0071"/>
  <outline>
    <contour>
      <point x="308" y="-223" type="line"/>
      <point x="726" y="-223" type="line"/>
      <point x="750" y="-139" type="line"/>
      <point x="746" y="-139" type="line" smooth="yes"/>
      <point x="707" y="-139"/>
      <point x="691" y="-124"/>
      <point x="707" y="-74" type="curve" smooth="yes"/>
      <point x="908" y="584" type="line"/>
      <point x="754" y="584" type="line"/>
      <point x="599" y="421" type="line"/>
      <point x="591" y="400" type="line"/>
      <point x="426" y="-131" type="line" smooth="yes"/>
      <point x="423" y="-137"/>
      <point x="391" y="-139"/>
      <point x="339" y="-139" type="curve" smooth="yes"/>
      <point x="332" y="-139" type="line"/>
    </contour>
    <contour>
      <point x="42" y="206" type="curve" smooth="yes"/>
      <point x="42" y="61"/>
      <point x="127" y="-12"/>
      <point x="272" y="-12" type="curve" smooth="yes"/>
      <point x="403" y="-12"/>
      <point x="475" y="57"/>
      <point x="585" y="206" type="curve"/>
      <point x="591" y="249" type="line"/>
      <point x="483" y="153"/>
      <point x="437" y="118"/>
      <point x="376" y="118" type="curve" smooth="yes"/>
      <point x="331" y="118"/>
      <point x="305" y="140"/>
      <point x="305" y="186" type="curve" smooth="yes"/>
      <point x="305" y="280"/>
      <point x="365" y="453"/>
      <point x="472" y="453" type="curve" smooth="yes"/>
      <point x="550" y="453"/>
      <point x="581" y="398"/>
      <point x="613" y="329" type="curve"/>
      <point x="637" y="360" type="line"/>
      <point x="632" y="511"/>
      <point x="571" y="583"/>
      <point x="406" y="583" type="curve" smooth="yes"/>
      <point x="191" y="583"/>
      <point x="42" y="389"/>
    </contour>
  </outline>
</glyph>
<glyph name="y" format="2">
  <advance width="815"/>
  <unicode hex="0079"/>
  <anchor x="406" y="572" name="top"/>
  <anchor x="416" y="-211" name="bottom"/>
  <outline>
    <contour>
      <point x="288" y="-65" type="line"/>
      <point x="149" y="455" type="line" smooth="yes"/>
      <point x="146" y="464"/>
      <point x="132" y="470"/>
      <point x="95" y="474" type="curve" smooth="yes"/>
      <point x="81" y="476" type="line"/>
      <point x="111" y="572" type="line"/>
      <point x="386" y="572" type="line"/>
      <point x="499" y="124" type="line"/>
      <point x="425" y="52" type="line"/>
    </contour>
    <contour>
      <point x="413" y="116" type="line"/>
      <point x="501" y="268"/>
      <point x="586" y="420"/>
      <point x="674" y="572" type="curve"/>
      <point x="859" y="572" type="line"/>
      <point x="859" y="565" type="line"/>
      <point x="719" y="371"/>
      <point x="561" y="138"/>
      <point x="463" y="14" type="curve" smooth="yes"/>
      <point x="320" y="-174"/>
      <point x="235" y="-254"/>
      <point x="44" y="-254" type="curve" smooth="yes"/>
      <point x="-26" y="-254"/>
      <point x="-81" y="-241"/>
      <point x="-104" y="-229" type="curve"/>
      <point x="-65" y="-97" type="line"/>
      <point x="-51" y="-104"/>
      <point x="-6" y="-119"/>
      <point x="74" y="-119" type="curve" smooth="yes"/>
      <point x="190" y="-119"/>
      <point x="267" y="-52"/>
      <point x="329" y="55" type="curve"/>
    </contour>
  </outline>
</glyph>
<glyph name="germandbls" format="2">
  <advance width="947"/>
  <unicode hex="00DF"/>
  <outline>
    <contour>
      <point x="75" y="572" type="line"/>
      <point x="47" y="473" type="line"/>
      <point x="245" y="473" type="line"/>
      <point x="274" y="572" type="line"/>
    </contour>
    <contour>
      <point x="21" y="-253" type="line"/>
      <point x="219" y="-253" type="line"/>
      <point x="455" y="572" type="line" smooth="yes"/>
      <point x="479" y="658"/>
      <point x="504" y="681"/>
      <point x="578" y="681" type="curve" smooth="yes"/>
      <point x="638" y="681"/>
      <point x="664" y="665"/>
      <point x="664" y="620" type="curve" smooth="yes"/>
      <point x="664" y="565"/>
      <point x="641" y="488"/>
      <point x="523" y="488" type="curve"/>
      <point x="491" y="380" type="line"/>
      <point x="577" y="375"/>
      <point x="617" y="360"/>
      <point x="617" y="298" type="curve" smooth="yes"/>
      <point x="617" y="234"/>
      <point x="584" y="107"/>
      <point x="494" y="107" type="curve" smooth="yes"/>
      <point x="455" y="107"/>
      <point x="419" y="122"/>
      <point x="412" y="124" type="curve"/>
      <point x="381" y="16" type="line"/>
      <point x="413" y="2"/>
      <point x="478" y="-10"/>
      <point x="547" y="-10" type="curve" smooth="yes"/>
      <point x="763" y="-10"/>
      <point x="891" y="85"/>
      <point x="891" y="243" type="curve" smooth="yes"/>
      <point x="891" y="367"/>
      <point x="755" y="415"/>
      <point x="609" y="426" type="curve"/>
      <point x="634" y="401" type="line"/>
      <point x="648" y="447" type="line"/>
      <point x="590" y="427" type="line"/>
      <point x="785" y="430"/>
      <point x="923" y="493"/>
      <point x="923" y="619" type="curve" smooth="yes"/>
      <point x="923" y="732"/>
      <point x="796" y="785"/>
      <point x="584" y="785" type="curve" smooth="yes"/>
      <point x="366" y="785"/>
      <point x="222" y="733"/>
      <point x="195" y="604" type="curve" smooth="yes"/>
    </contour>
  </outline>
</glyph>
<glyph name="icircumflex" format="2">
  <advance width="481"/>
  <unicode hex="00EE"/>
  <outline>
    <contour>
      <point x="456" y="870" type="line"/>
      <point x="565" y="671" type="line"/>
      <point x="549" y="618" type="line"/>
      <point x="474" y="618" type="line"/>
      <point x="304" y="727" type="line"/>
      <point x="365" y="729" type="line"/>
      <point x="135" y="618" type="line"/>
      <point x="42" y="618" type="line"/>
      <point x="58" y="671" type="line"/>
      <point x="284" y="870" type="line"/>
    </contour>
    <component base="dotlessi"/>
  </outline>
</glyph>
<glyph name="ibreve" format="2">
  <advance width="481"/>
  <unicode hex="012D"/>
  <outline>
    <contour>
      <point x="309" y="621" type="curve" smooth="yes"/>
      <point x="159" y="621"/>
      <point x="86" y="671"/>
      <point x="86" y="767" type="curve" smooth="yes"/>
      <point x="86" y="788"/>
      <point x="89" y="817"/>
      <point x="96" y="843" type="curve"/>
      <point x="224" y="843" type="line"/>
      <point x="218" y="785"/>
      <point x="230" y="768"/>
      <point x="313" y="768" type="curve" smooth="yes"/>
      <point x="406" y="768"/>
      <point x="427" y="778"/>
      <point x="447" y="843" type="curve"/>
      <point x="574" y="843" type="line"/>
      <point x="566" y="668"/>
      <point x="454" y="621"/>
    </contour>
    <component base="dotlessi"/>
  </outline>
</glyph>
<glyph name="Iogonek" format="2">
  <advance width="541"/>
  <unicode hex="012E"/>
  <outline>
    <contour>
      <point x="353" y="47" type="line"/>
      <point x="-12" y="-30"/>
      <point x="-72" y="-67"/>
      <point x="-72" y="-148" type="curve" smooth="yes"/>
      <point x="-72" y="-222"/>
      <point x="2" y="-252"/>
      <point x="141" y="-252" type="curve" smooth="yes"/>
      <point x="242" y="-252"/>
      <point x="309" y="-228"/>
      <point x="359" y="-189" type="curve"/>
      <point x="315" y="-131" type="line"/>
      <point x="290" y="-147"/>
      <point x="253" y="-170"/>
      <point x="209" y="-170" type="curve" smooth="yes"/>
      <point x="171" y="-170"/>
      <point x="151" y="-158"/>
      <point x="151" y="-125" type="curve" smooth="yes"/>
      <point x="151" y="-90"/>
      <point x="166" y="-60"/>
      <point x="368" y="7" type="curve"/>
    </contour>
    <component base="I"/>
  </outline>
</glyph>
<glyph name="Lslash" format="2">
  <advance width="915"/>
  <unicode hex="0141"/>
  <outline>
    <contour>
      <point x="3" y="174" type="line"/>
      <point x="736" y="453" type="line"/>
      <point x="769" y="568" type="line"/>
      <point x="35" y="289" type="line"/>
    </contour>
    <component base="L" xOffset="49"/>
  </outline>
</glyph>
<glyph name="mu" format="2">
  <advance width="942"/>
  <unicode hex="03BC"/>
  <outline>
    <contour>
      <point x="683" y="-10" type="curve" smooth="yes"/>
      <point x="817" y="-10"/>
      <point x="878" y="48"/>
      <point x="928" y="140" type="curve"/>
      <point x="847" y="175" type="line"/>
      <point x="821" y="131"/>
      <point x="801" y="111"/>
      <point x="768" y="111" type="curve"/>
      <point x="741" y="111"/>
      <point x="729" y="119"/>
      <point x="729" y="138" type="curve" smooth="yes"/>
      <point x="729" y="164"/>
      <point x="738" y="185"/>
      <point x="760" y="265" type="curve" smooth="yes"/>
      <point x="860" y="572" type="line"/>
      <point x="595" y="572" type="line"/>
      <point x="470" y="164" type="line"/>
      <point x="487" y="192" type="line"/>
      <point x="485" y="184"/>
      <point x="485" y="176"/>
      <point x="484" y="165" type="curve" smooth="yes"/>
      <point x="478" y="54"/>
      <point x="536" y="-10"/>
    </contour>
    <contour>
      <point x="-86" y="-250" type="line"/>
      <point x="169" y="-250" type="line"/>
      <point x="215" y="-94"/>
      <point x="103" y="-5"/>
      <point x="157" y="221" type="curve"/>
      <point x="132" y="143" type="line"/>
      <point x="138" y="47"/>
      <point x="177" y="-11"/>
      <point x="266" y="-11" type="curve" smooth="yes"/>
      <point x="352" y="-11"/>
      <point x="435" y="98"/>
      <point x="513" y="187" type="curve"/>
      <point x="525" y="274" type="line"/>
      <point x="441" y="184"/>
      <point x="382" y="125"/>
      <point x="333" y="125" type="curve" smooth="yes"/>
      <point x="311" y="125"/>
      <point x="302" y="132"/>
      <point x="302" y="143" type="curve" smooth="yes"/>
      <point x="302" y="157"/>
      <point x="306" y="174"/>
      <point x="314" y="196" type="curve" smooth="yes"/>
      <point x="429" y="572" type="line"/>
      <point x="164" y="572" type="line"/>
    </contour>
  </outline>
</glyph>
<glyph name="thai:baht" format="2">
  <advance width="686"/>
  <unicode hex="0E3F"/>
  <outline>
    <contour>
      <point x="181" y="82" type="line"/>
      <point x="261" y="339" type="line"/>
      <point x="352" y="339" type="line" smooth="yes"/>
      <point x="435" y="339"/>
      <point x="457" y="307"/>
      <point x="457" y="270" type="curve" smooth="yes"/>
      <point x="457" y="244"/>
      <point x="452" y="222"/>
      <point x="445" y="201" type="curve" smooth="yes"/>
      <point x="420" y="116"/>
      <point x="377" y="82"/>
      <point x="284" y="82" type="curve" smooth="yes"/>
    </contour>
    <contour>
      <point x="281" y="405" type="line"/>
      <point x="349" y="627" type="line"/>
      <point x="420" y="627" type="line"/>
      <point x="495" y="627"/>
      <point x="521" y="604"/>
      <point x="521" y="561" type="curve" smooth="yes"/>
      <point x="521" y="539"/>
      <point x="518" y="531"/>
      <point x="514" y="518" type="curve" smooth="yes"/>
      <point x="497" y="446"/>
      <point x="464" y="405"/>
      <point x="377" y="405" type="curve" smooth="yes"/>
    </contour>
    <contour>
      <point x="145" y="-110" type="line"/>
      <point x="283" y="-110" type="line"/>
      <point x="328" y="38" type="line"/>
      <point x="291" y="50" type="line"/>
      <point x="474" y="662" type="line"/>
      <point x="522" y="673" type="line"/>
      <point x="557" y="790" type="line"/>
      <point x="420" y="790" type="line"/>
      <point x="385" y="676" type="line"/>
      <point x="432" y="660" type="line"/>
      <point x="248" y="46" type="line"/>
      <point x="189" y="36" type="line"/>
    </contour>
    <contour>
      <point x="-90" y="10" type="line"/>
      <point x="290" y="10" type="line" smooth="yes"/>
      <point x="511" y="10"/>
      <point x="652" y="74"/>
      <point x="652" y="225" type="curve"/>
      <point x="652" y="305"/>
      <point x="573" y="358"/>
      <point x="427" y="367" type="curve"/>
      <point x="453" y="356" type="line"/>
      <point x="460" y="378" type="line"/>
      <point x="417" y="371" type="line"/>
      <point x="597" y="377"/>
      <point x="706" y="430"/>
      <point x="706" y="557" type="curve" smooth="yes"/>
      <point x="706" y="658"/>
      <point x="609" y="700"/>
      <point x="422" y="700" type="curve" smooth="yes"/>
      <point x="121" y="700" type="line"/>
      <point x="94" y="605" type="line"/>
      <point x="101" y="605" type="line" smooth="yes"/>
      <point x="131" y="605"/>
      <point x="153" y="597"/>
      <point x="144" y="569" type="curve" smooth="yes"/>
      <point x="10" y="141" type="line" smooth="yes"/>
      <point x="1" y="112"/>
      <point x="-24" y="105"/>
      <point x="-54" y="105" type="curve" smooth="yes"/>
      <point x="-62" y="105" type="line"/>
    </contour>
  </outline>
</glyph>
<glyph name="daggerdbl" format="2">
  <advance width="803"/>
  <unicode hex="2021"/>
  <outline>
    <contour>
      <point x="-34" y="47" type="line"/>
      <point x="32" y="47" type="line"/>
      <point x="304" y="127" type="line"/>
      <point x="392" y="127" type="line"/>
      <point x="616" y="47" type="line"/>
      <point x="681" y="47" type="line"/>
      <point x="734" y="229" type="line"/>
      <point x="669" y="229" type="line"/>
      <point x="403" y="162" type="line"/>
      <point x="314" y="162" type="line"/>
      <point x="85" y="229" type="line"/>
      <point x="19" y="229" type="line"/>
    </contour>
    <contour>
      <point x="213" y="290" type="line"/>
      <point x="231" y="275"/>
      <point x="337" y="241"/>
      <point x="307" y="139" type="curve" smooth="yes"/>
      <point x="280" y="50"/>
      <point x="117" y="18"/>
      <point x="105" y="-22" type="curve" smooth="yes"/>
      <point x="91" y="-67" type="line"/>
      <point x="485" y="-67" type="line"/>
      <point x="498" y="-22" type="line" smooth="yes"/>
      <point x="510" y="18"/>
      <point x="369" y="56"/>
      <point x="396" y="145" type="curve" smooth="yes"/>
      <point x="427" y="249"/>
      <point x="552" y="275"/>
      <point x="578" y="290" type="curve"/>
      <point x="596" y="353" type="line"/>
      <point x="579" y="368"/>
      <point x="473" y="399"/>
      <point x="503" y="505" type="curve" smooth="yes"/>
      <point x="529" y="592"/>
      <point x="693" y="625"/>
      <point x="706" y="665" type="curve" smooth="yes"/>
      <point x="719" y="710" type="line"/>
      <point x="325" y="710" type="line"/>
      <point x="312" y="665" type="line" smooth="yes"/>
      <point x="300" y="625"/>
      <point x="439" y="585"/>
      <point x="414" y="499" type="curve" smooth="yes"/>
      <point x="383" y="394"/>
      <point x="258" y="368"/>
      <point x="231" y="353" type="curve"/>
    </contour>
    <contour>
      <point x="75" y="414" type="line"/>
      <point x="141" y="414" type="line"/>
      <point x="410" y="481" type="line"/>
      <point x="497" y="481" type="line"/>
      <point x="725" y="414" type="line"/>
      <point x="791" y="414" type="line"/>
      <point x="844" y="596" type="line"/>
      <point x="778" y="596" type="line"/>
      <point x="507" y="516" type="line"/>
      <point x="420" y="516" type="line"/>
      <point x="194" y="596" type="line"/>
      <point x="128" y="596" type="line"/>
    </contour>
  </outline>
</glyph>
<glyph name="six.den" format="2">
  <advance width="593"/>
  <unicode hex="E408"/>
  <outline>
    <contour>
      <point x="242" y="-6" type="curve" smooth="yes"/>
      <point x="109" y="-6"/>
      <point x="19" y="45"/>
      <point x="19" y="147" type="curve" smooth="yes"/>
      <point x="19" y="283"/>
      <point x="144" y="442"/>
      <point x="507" y="447" type="curve"/>
      <point x="511" y="371" type="line"/>
      <point x="268" y="362"/>
      <point x="191" y="263"/>
      <point x="191" y="103" type="curve" smooth="yes"/>
      <point x="191" y="73"/>
      <point x="208" y="58"/>
      <point x="246" y="58" type="curve" smooth="yes"/>
      <point x="304" y="58"/>
      <point x="331" y="124"/>
      <point x="331" y="171" type="curve" smooth="yes"/>
      <point x="331" y="200"/>
      <point x="316" y="216"/>
      <point x="287" y="216" type="curve" smooth="yes"/>
      <point x="244" y="216"/>
      <point x="204" y="175"/>
      <point x="171" y="129" type="curve"/>
      <point x="183" y="177" type="line"/>
      <point x="218" y="233"/>
      <point x="282" y="285"/>
      <point x="375" y="285" type="curve" smooth="yes"/>
      <point x="469" y="285"/>
      <point x="513" y="238"/>
      <point x="513" y="178" type="curve" smooth="yes"/>
      <point x="513" y="66"/>
      <point x="423" y="-6"/>
    </contour>
  </outline>
</glyph>
<glyph name="seven.den" format="2">
  <advance width="593"/>
  <unicode hex="E409"/>
  <outline>
    <contour>
      <point x="281" y="321" type="line" smooth="yes"/>
      <point x="215" y="321"/>
      <point x="185" y="316"/>
      <point x="175" y="292" type="curve" smooth="yes"/>
      <point x="156" y="252" type="line"/>
      <point x="67" y="252" type="line"/>
      <point x="117" y="415" type="line"/>
      <point x="542" y="415" type="line"/>
      <point x="512" y="312" type="line"/>
      <point x="388" y="260"/>
      <point x="343" y="188"/>
      <point x="297" y="0" type="curve"/>
      <point x="105" y="0" type="line"/>
      <point x="168" y="190"/>
      <point x="370" y="299"/>
      <point x="480" y="340" type="curve"/>
      <point x="467" y="321" type="line"/>
    </contour>
  </outline>
</glyph>
<glyph name="AE.alt" format="2">
  <advance width="1409"/>
  <outline>
    <contour>
      <point x="281" y="290" type="line"/>
      <point x="250" y="207" type="line"/>
      <point x="643" y="207" type="line"/>
      <point x="657" y="290" type="line"/>
    </contour>
    <contour>
      <point x="-53" y="0" type="line"/>
      <point x="242" y="0" type="line"/>
      <point x="272" y="101" type="line"/>
      <point x="262" y="101" type="line" smooth="yes"/>
      <point x="207" y="101"/>
      <point x="194" y="111"/>
      <point x="198" y="124" type="curve"/>
      <point x="693" y="611" type="line"/>
      <point x="729" y="611" type="line"/>
      <point x="581" y="137" type="line"/>
      <point x="572" y="108"/>
      <point x="544" y="101"/>
      <point x="508" y="101" type="curve" smooth="yes"/>
      <point x="494" y="101" type="line"/>
      <point x="464" y="0" type="line"/>
      <point x="1246" y="0" type="line"/>
      <point x="1311" y="226" type="line"/>
      <point x="1180" y="226" type="line"/>
      <point x="1133" y="143" type="line" smooth="yes"/>
      <point x="1114" y="107"/>
      <point x="1078" y="98"/>
      <point x="983" y="98" type="curve" smooth="yes"/>
      <point x="848" y="98" type="line"/>
      <point x="1008" y="612" type="line"/>
      <point x="1154" y="612" type="line" smooth="yes"/>
      <point x="1223" y="612"/>
      <point x="1258" y="603"/>
      <point x="1256" y="567" type="curve" smooth="yes"/>
      <point x="1253" y="509" type="line"/>
      <point x="1381" y="509" type="line"/>
      <point x="1434" y="710" type="line"/>
      <point x="476" y="710" type="line"/>
      <point x="446" y="610" type="line"/>
      <point x="456" y="610" type="line" smooth="yes"/>
      <point x="491" y="610"/>
      <point x="524" y="603"/>
      <point x="514" y="574" type="curve"/>
      <point x="95" y="165" type="line" smooth="yes"/>
      <point x="48" y="116"/>
      <point x="20" y="101"/>
      <point x="-15" y="101" type="curve" smooth="yes"/>
      <point x="-22" y="101" type="line"/>
    </contour>
    <contour>
      <point x="838" y="416" type="line"/>
      <point x="811" y="323" type="line"/>
      <point x="1012" y="323" type="line" smooth="yes"/>
      <point x="1048" y="323"/>
      <point x="1053" y="298"/>
      <point x="1045" y="275" type="curve" smooth="yes"/>
      <point x="1040" y="260" type="line"/>
      <point x="1152" y="260" type="line"/>
      <point x="1218" y="478" type="line"/>
      <point x="1106" y="478" type="line"/>
      <point x="1102" y="465" type="line" smooth="yes"/>
      <point x="1095" y="441"/>
      <point x="1076" y="416"/>
      <point x="1040" y="416" type="curve" smooth="yes"/>
    </contour>
  </outline>
</glyph>
<glyph name="OE.alt" format="2">
  <advance width="1379"/>
  <outline>
    <contour>
      <point x="809" y="416" type="line"/>
      <point x="781" y="323" type="line"/>
      <point x="983" y="323" type="line" smooth="yes"/>
      <point x="1019" y="323"/>
      <point x="1024" y="298"/>
      <point x="1016" y="275" type="curve" smooth="yes"/>
      <point x="1011" y="260" type="line"/>
      <point x="1122" y="260" type="line"/>
      <point x="1188" y="478" type="line"/>
      <point x="1077" y="478" type="line"/>
      <point x="1073" y="465" type="line" smooth="yes"/>
      <point x="1066" y="441"/>
      <point x="1046" y="416"/>
      <point x="1011" y="416" type="curve" smooth="yes"/>
    </contour>
    <contour>
      <point x="1298" y="226" type="line"/>
      <point x="1167" y="226" type="line"/>
      <point x="1120" y="143" type="line" smooth="yes"/>
      <point x="1101" y="107"/>
      <point x="1064" y="98"/>
      <point x="970" y="98" type="curve" smooth="yes"/>
      <point x="839" y="98" type="line"/>
      <point x="1000" y="612" type="line"/>
      <point x="1124" y="612" type="line" smooth="yes"/>
      <point x="1193" y="612"/>
      <point x="1229" y="603"/>
      <point x="1227" y="567" type="curve" smooth="yes"/>
      <point x="1223" y="509" type="line"/>
      <point x="1352" y="509" type="line"/>
      <point x="1404" y="710" type="line"/>
      <point x="588" y="710" type="line" smooth="yes"/>
      <point x="242" y="710"/>
      <point x="54" y="513"/>
      <point x="54" y="294" type="curve" smooth="yes"/>
      <point x="54" y="99"/>
      <point x="214" y="0"/>
      <point x="472" y="0" type="curve" smooth="yes"/>
      <point x="1233" y="0" type="line"/>
    </contour>
    <contour>
      <point x="486" y="99" type="line" smooth="yes"/>
      <point x="379" y="99"/>
      <point x="336" y="149"/>
      <point x="336" y="249" type="curve" smooth="yes"/>
      <point x="336" y="381"/>
      <point x="415" y="611"/>
      <point x="618" y="611" type="curve" smooth="yes"/>
      <point x="721" y="611" type="line"/>
      <point x="560" y="99" type="line"/>
    </contour>
  </outline>
</glyph>
<glyph name="breve_acute.uc" format="2">
  <advance width="615"/>
  <anchor x="307" y="744" name="_top"/>
  <outline>
    <contour>
      <point x="370" y="1203" type="curve" smooth="yes"/>
      <point x="234" y="1079" type="line"/>
      <point x="221" y="1035" type="line"/>
      <point x="287" y="1035" type="line"/>
      <point x="454" y="1062" type="line" smooth="yes"/>
      <point x="570" y="1083"/>
      <point x="625" y="1111"/>
      <point x="625" y="1181" type="curve" smooth="yes"/>
      <point x="625" y="1234"/>
      <point x="582" y="1273"/>
      <point x="510" y="1273" type="curve" smooth="yes"/>
      <point x="449" y="1273"/>
      <point x="414" y="1246"/>
    </contour>
    <component base="breve.uc"/>
  </outline>
</glyph>
<glyph name="cent.alt" format="2">
  <advance width="686"/>
  <outline>
    <contour>
      <point x="445" y="583" type="curve" smooth="yes"/>
      <point x="153" y="583"/>
      <point x="16" y="423"/>
      <point x="16" y="237" type="curve" smooth="yes"/>
      <point x="16" y="80"/>
      <point x="152" y="-12"/>
      <point x="353" y="-12" type="curve" smooth="yes"/>
      <point x="508" y="-12"/>
      <point x="593" y="53"/>
      <point x="654" y="144" type="curve"/>
      <point x="562" y="196" type="line"/>
      <point x="519" y="140"/>
      <point x="475" y="89"/>
      <point x="386" y="89" type="curve" smooth="yes"/>
      <point x="310" y="89"/>
      <point x="272" y="130"/>
      <point x="272" y="190" type="curve" smooth="yes"/>
      <point x="272" y="279"/>
      <point x="315" y="485"/>
      <point x="459" y="485" type="curve" smooth="yes"/>
      <point x="505" y="485"/>
      <point x="541" y="472"/>
      <point x="559" y="448" type="curve"/>
      <point x="567" y="460"/>
      <point x="572" y="531"/>
      <point x="529" y="530" type="curve"/>
      <point x="473" y="343" type="line"/>
      <point x="669" y="343" type="line"/>
      <point x="725" y="527" type="line"/>
      <point x="690" y="544"/>
      <point x="594" y="583"/>
    </contour>
    <contour>
      <point x="229" y="40" type="line"/>
      <point x="169" y="-166" type="line"/>
      <point x="304" y="-166" type="line"/>
      <point x="360" y="20" type="line"/>
    </contour>
    <contour>
      <point x="433" y="703" type="line"/>
      <point x="385" y="546" type="line"/>
      <point x="523" y="555" type="line"/>
      <point x="568" y="703" type="line"/>
    </contour>
  </outline>
</glyph>
<glyph name="circumflex_grave.uc" format="2">
  <advance width="616"/>
  <anchor x="313" y="696" name="_top"/>
  <outline>
    <contour>
      <point x="704" y="1089" type="line" smooth="yes"/>
      <point x="672" y="1141"/>
      <point x="635" y="1189"/>
      <point x="559" y="1189" type="curve" smooth="yes"/>
      <point x="489" y="1189"/>
      <point x="443" y="1152"/>
      <point x="443" y="1097" type="curve" smooth="yes"/>
      <point x="443" y="1038"/>
      <point x="486" y="1007"/>
      <point x="582" y="968" type="curve" smooth="yes"/>
      <point x="717" y="920" type="line"/>
      <point x="782" y="920" type="line"/>
      <point x="783" y="965" type="line"/>
    </contour>
    <component base="circumflex.uc"/>
  </outline>
</glyph>
<glyph name="colonmonetary.proportional" format="2">
  <advance width="909"/>
  <outline>
    <contour>
      <point x="452" y="10" type="curve" smooth="yes"/>
      <point x="651" y="10"/>
      <point x="744" y="84"/>
      <point x="819" y="216" type="curve"/>
      <point x="709" y="258" type="line"/>
      <point x="642" y="155"/>
      <point x="591" y="103"/>
      <point x="467" y="103" type="curve" smooth="yes"/>
      <point x="328" y="103"/>
      <point x="268" y="151"/>
      <point x="268" y="254" type="curve" smooth="yes"/>
      <point x="268" y="387"/>
      <point x="327" y="609"/>
      <point x="573" y="609" type="curve" smooth="yes"/>
      <point x="713" y="609"/>
      <point x="826" y="582"/>
      <point x="868" y="565" type="curve"/>
      <point x="863" y="583"/>
      <point x="799" y="632"/>
      <point x="777" y="641" type="curve"/>
      <point x="716" y="442" type="line"/>
      <point x="868" y="442" type="line"/>
      <point x="932" y="654" type="line"/>
      <point x="880" y="674"/>
      <point x="742" y="700"/>
      <point x="574" y="700" type="curve" smooth="yes"/>
      <point x="184" y="700"/>
      <point x="50" y="489"/>
      <point x="50" y="296" type="curve" smooth="yes"/>
      <point x="50" y="110"/>
      <point x="202" y="10"/>
    </contour>
    <contour>
      <point x="598" y="790" type="line"/>
      <point x="534" y="668" type="line"/>
      <point x="568" y="649" type="line"/>
      <point x="252" y="98" type="line"/>
      <point x="191" y="85" type="line"/>
      <point x="78" y="-120" type="line"/>
      <point x="198" y="-120" type="line"/>
      <point x="297" y="58" type="line"/>
      <point x="293" y="71" type="line"/>
      <point x="630" y="657" type="line"/>
      <point x="661" y="682" type="line"/>
      <point x="718" y="790" type="line"/>
    </contour>
    <contour>
      <point x="782" y="790" type="line"/>
      <point x="725" y="682" type="line"/>
      <point x="726" y="664" type="line"/>
      <point x="376" y="51" type="line"/>
      <point x="353" y="41" type="line"/>
      <point x="262" y="-120" type="line"/>
      <point x="382" y="-120" type="line"/>
      <point x="463" y="28" type="line"/>
      <point x="429" y="44" type="line"/>
      <point x="779" y="658" type="line"/>
      <point x="838" y="669" type="line"/>
      <point x="902" y="790" type="line"/>
    </contour>
  </outline>
</glyph>
<glyph name="dblgrave.uc" format="2">
  <advance width="613"/>
  <anchor x="343" y="734" name="_top"/>
  <outline>
    <contour>
      <point x="543" y="914" type="line" smooth="yes"/>
      <point x="528" y="991"/>
      <point x="495" y="1030"/>
      <point x="418" y="1030" type="curve" smooth="yes"/>
      <point x="350" y="1030"/>
      <point x="303" y="991"/>
      <point x="303" y="938" type="curve" smooth="yes"/>
      <point x="303" y="889"/>
      <point x="336" y="859"/>
      <point x="385" y="833" type="curve" smooth="yes"/>
      <point x="491" y="778" type="line"/>
      <point x="551" y="778" type="line"/>
      <point x="565" y="822" type="line"/>
    </contour>
    <contour>
      <point x="241" y="914" type="line" smooth="yes"/>
      <point x="226" y="991"/>
      <point x="192" y="1030"/>
      <point x="116" y="1030" type="curve" smooth="yes"/>
      <point x="48" y="1030"/>
      <point x="1" y="991"/>
      <point x="1" y="938" type="curve" smooth="yes"/>
      <point x="1" y="889"/>
      <point x="34" y="859"/>
      <point x="83" y="833" type="curve" smooth="yes"/>
      <point x="190" y="778" type="line"/>
      <point x="250" y="778" type="line"/>
      <point x="262" y="822" type="line"/>
    </contour>
  </outline>
</glyph>
<glyph name="dong.proportional" format="2">
  <advance width="914"/>
  <outline>
    <contour>
      <point x="251" y="-12" type="curve" smooth="yes"/>
      <point x="380" y="-12"/>
      <point x="454" y="57"/>
      <point x="563" y="206" type="curve"/>
      <point x="568" y="249" type="line"/>
      <point x="465" y="153"/>
      <point x="416" y="118"/>
      <point x="357" y="118" type="curve" smooth="yes"/>
      <point x="313" y="118"/>
      <point x="289" y="140"/>
      <point x="289" y="186" type="curve" smooth="yes"/>
      <point x="289" y="280"/>
      <point x="344" y="453"/>
      <point x="454" y="453" type="curve" smooth="yes"/>
      <point x="524" y="453"/>
      <point x="555" y="398"/>
      <point x="585" y="329" type="curve"/>
      <point x="595" y="360" type="line"/>
      <point x="587" y="511"/>
      <point x="528" y="583"/>
      <point x="378" y="583" type="curve" smooth="yes"/>
      <point x="163" y="583"/>
      <point x="26" y="390"/>
      <point x="26" y="206" type="curve" smooth="yes"/>
      <point x="26" y="61"/>
      <point x="110" y="-12"/>
    </contour>
    <contour>
      <point x="633" y="0" type="curve" smooth="yes"/>
      <point x="687" y="0"/>
      <point x="741" y="0"/>
      <point x="794" y="0" type="curve"/>
      <point x="825" y="118" type="line"/>
      <point x="811" y="118"/>
      <point x="796" y="118"/>
      <point x="782" y="118" type="curve" smooth="yes"/>
      <point x="758" y="118"/>
      <point x="746" y="125"/>
      <point x="746" y="143" type="curve" smooth="yes"/>
      <point x="746" y="157"/>
      <point x="757" y="182"/>
      <point x="781" y="252" type="curve" smooth="yes"/>
      <point x="942" y="780" type="line"/>
      <point x="679" y="780" type="line"/>
      <point x="484" y="142" type="line"/>
      <point x="498" y="138" type="line"/>
      <point x="498" y="115"/>
      <point x="498" y="108"/>
      <point x="498" y="97" type="curve" smooth="yes"/>
      <point x="498" y="35"/>
      <point x="548" y="0"/>
    </contour>
    <contour>
      <point x="40" y="-87" type="line"/>
      <point x="13" y="-180" type="line"/>
      <point x="710" y="-180" type="line"/>
      <point x="738" y="-87" type="line"/>
    </contour>
    <contour>
      <point x="411" y="718" type="line"/>
      <point x="386" y="632" type="line"/>
      <point x="983" y="632" type="line"/>
      <point x="1008" y="718" type="line"/>
    </contour>
  </outline>
</glyph>
<glyph name="guarani.proportional" format="2">
  <advance width="946"/>
  <outline>
    <contour>
      <point x="573" y="790" type="line"/>
      <point x="537" y="669" type="line"/>
      <point x="564" y="659" type="line"/>
      <point x="378" y="50" type="line"/>
      <point x="344" y="39" type="line"/>
      <point x="296" y="-120" type="line"/>
      <point x="432" y="-120" type="line"/>
      <point x="479" y="40" type="line"/>
      <point x="443" y="50" type="line"/>
      <point x="627" y="655" type="line"/>
      <point x="673" y="673" type="line"/>
      <point x="709" y="790" type="line"/>
    </contour>
    <contour>
      <point x="618" y="223" type="curve" smooth="yes"/>
      <point x="580" y="105" type="line"/>
      <point x="563" y="101"/>
      <point x="527" y="94"/>
      <point x="478" y="94" type="curve" smooth="yes"/>
      <point x="348" y="94"/>
      <point x="297" y="140"/>
      <point x="297" y="252" type="curve" smooth="yes"/>
      <point x="297" y="368"/>
      <point x="332" y="616"/>
      <point x="582" y="616" type="curve" smooth="yes"/>
      <point x="690" y="616"/>
      <point x="792" y="591"/>
      <point x="840" y="549" type="curve"/>
      <point x="850" y="557"/>
      <point x="791" y="639"/>
      <point x="750" y="656" type="curve"/>
      <point x="701" y="490" type="line"/>
      <point x="921" y="490" type="line"/>
      <point x="962" y="621" type="line"/>
      <point x="900" y="659"/>
      <point x="733" y="700"/>
      <point x="562" y="700" type="curve" smooth="yes"/>
      <point x="200" y="700"/>
      <point x="41" y="520"/>
      <point x="41" y="308" type="curve" smooth="yes"/>
      <point x="41" y="111"/>
      <point x="204" y="10"/>
      <point x="477" y="10" type="curve" smooth="yes"/>
      <point x="625" y="10"/>
      <point x="738" y="51"/>
      <point x="792" y="69" type="curve"/>
      <point x="840" y="223" type="line" smooth="yes"/>
      <point x="848" y="252"/>
      <point x="864" y="259"/>
      <point x="883" y="259" type="curve" smooth="yes"/>
      <point x="888" y="259" type="line"/>
      <point x="915" y="353" type="line"/>
      <point x="652" y="353" type="line"/>
      <point x="626" y="259" type="line"/>
      <point x="627" y="259" type="line" smooth="yes"/>
      <point x="629" y="259"/>
      <point x="627" y="252"/>
    </contour>
  </outline>
</glyph>
<glyph name="hungarumlaut.uc" format="2">
  <advance width="613"/>
  <anchor x="328" y="694" name="_top"/>
  <outline>
    <contour>
      <point x="69" y="926" type="curve" smooth="yes"/>
      <point x="19" y="822" type="line"/>
      <point x="19" y="778" type="line"/>
      <point x="83" y="778" type="line"/>
      <point x="201" y="827" type="line" smooth="yes"/>
      <point x="263" y="854"/>
      <point x="314" y="887"/>
      <point x="314" y="946" type="curve" smooth="yes"/>
      <point x="314" y="996"/>
      <point x="277" y="1030"/>
      <point x="208" y="1030" type="curve" smooth="yes"/>
      <point x="134" y="1030"/>
      <point x="94" y="984"/>
    </contour>
    <contour>
      <point x="376" y="926" type="curve" smooth="yes"/>
      <point x="325" y="822" type="line"/>
      <point x="325" y="778" type="line"/>
      <point x="389" y="778" type="line"/>
      <point x="507" y="827" type="line" smooth="yes"/>
      <point x="570" y="854"/>
      <point x="621" y="887"/>
      <point x="621" y="946" type="curve" smooth="yes"/>
      <point x="621" y="996"/>
      <point x="584" y="1030"/>
      <point x="515" y="1030" type="curve" smooth="yes"/>
      <point x="440" y="1030"/>
      <point x="401" y="984"/>
    </contour>
  </outline>
</glyph>
<glyph name="liraTurkish" format="2">
  <advance width="686"/>
  <outline>
    <contour>
      <point x="10" y="270" type="line"/>
      <point x="-16" y="177" type="line"/>
      <point x="574" y="348" type="line"/>
      <point x="600" y="441" type="line"/>
    </contour>
    <contour>
      <point x="64" y="446" type="line"/>
      <point x="38" y="353" type="line"/>
      <point x="628" y="524" type="line"/>
      <point x="656" y="617" type="line"/>
    </contour>
    <contour>
      <point x="291" y="94" type="curve" smooth="yes"/>
      <point x="245" y="94" type="line"/>
      <point x="394" y="574" type="line" smooth="yes"/>
      <point x="403" y="603"/>
      <point x="422" y="610"/>
      <point x="457" y="610" type="curve" smooth="yes"/>
      <point x="472" y="610" type="line"/>
      <point x="502" y="710" type="line"/>
      <point x="169" y="710" type="line"/>
      <point x="139" y="610" type="line"/>
      <point x="152" y="610" type="line" smooth="yes"/>
      <point x="194" y="610"/>
      <point x="212" y="603"/>
      <point x="203" y="574" type="curve" smooth="yes"/>
      <point x="67" y="137" type="line" smooth="yes"/>
      <point x="57" y="108"/>
      <point x="36" y="101"/>
      <point x="-5" y="101" type="curve" smooth="yes"/>
      <point x="-19" y="101" type="line"/>
      <point x="-49" y="0" type="line"/>
      <point x="201" y="0" type="line" smooth="yes"/>
      <point x="491" y="0"/>
      <point x="603" y="63"/>
      <point x="654" y="234" type="curve"/>
      <point x="511" y="262" type="line"/>
      <point x="477" y="158"/>
      <point x="446" y="94"/>
    </contour>
  </outline>
</glyph>
<glyph name="nine.linprop" format="2">
  <advance width="772"/>
  <outline>
    <contour>
      <point x="-2" y="78" type="line"/>
      <point x="241" y="83"/>
      <point x="375" y="185"/>
      <point x="445" y="301" type="curve" smooth="yes"/>
      <point x="498" y="390"/>
      <point x="516" y="488"/>
      <point x="516" y="560" type="curve" smooth="yes"/>
      <point x="516" y="614"/>
      <point x="490" y="642"/>
      <point x="430" y="642" type="curve" smooth="yes"/>
      <point x="364" y="642"/>
      <point x="326" y="586"/>
      <point x="306" y="528" type="curve" smooth="yes"/>
      <point x="290" y="482"/>
      <point x="285" y="433"/>
      <point x="285" y="409" type="curve" smooth="yes"/>
      <point x="285" y="372"/>
      <point x="301" y="353"/>
      <point x="358" y="353" type="curve" smooth="yes"/>
      <point x="410" y="353"/>
      <point x="448" y="370"/>
      <point x="517" y="439" type="curve"/>
      <point x="520" y="403" type="line"/>
      <point x="450" y="323"/>
      <point x="387" y="260"/>
      <point x="259" y="260" type="curve" smooth="yes"/>
      <point x="125" y="260"/>
      <point x="45" y="322"/>
      <point x="45" y="420" type="curve" smooth="yes"/>
      <point x="45" y="597"/>
      <point x="160" y="735"/>
      <point x="435" y="735" type="curve"/>
      <point x="640" y="735"/>
      <point x="749" y="653"/>
      <point x="749" y="522" type="curve" smooth="yes"/>
      <point x="749" y="263"/>
      <point x="535" y="-6"/>
      <point x="1" y="-26" type="curve"/>
    </contour>
  </outline>
</glyph>
<glyph name="plus.sub" format="2">
  <advance width="516"/>
  <outline>
    <contour>
      <point x="196" y="250" type="line"/>
      <point x="93" y="-85" type="line"/>
      <point x="221" y="-85" type="line"/>
      <point x="324" y="250" type="line"/>
    </contour>
    <contour>
      <point x="435" y="134" type="line"/>
      <point x="11" y="134" type="line"/>
      <point x="-18" y="31" type="line"/>
      <point x="406" y="31" type="line"/>
    </contour>
  </outline>
</glyph>
<glyph name="thai:baht.proportional" format="2">
  <advance width="907"/>
  <outline>
    <contour>
      <point x="531" y="790" type="line"/>
      <point x="497" y="676" type="line"/>
      <point x="542" y="660" type="line"/>
      <point x="359" y="46" type="line"/>
      <point x="301" y="36" type="line"/>
      <point x="257" y="-110" type="line"/>
      <point x="394" y="-110" type="line"/>
      <point x="439" y="38" type="line"/>
      <point x="403" y="50" type="line"/>
      <point x="586" y="662" type="line"/>
      <point x="633" y="673" type="line"/>
      <point x="668" y="790" type="line"/>
    </contour>
    <contour>
      <point x="593" y="371" type="line"/>
      <point x="773" y="377"/>
      <point x="889" y="430"/>
      <point x="889" y="557" type="curve" smooth="yes"/>
      <point x="889" y="658"/>
      <point x="787" y="700"/>
      <point x="589" y="700" type="curve" smooth="yes"/>
      <point x="160" y="700" type="line"/>
      <point x="132" y="605" type="line"/>
      <point x="140" y="605" type="line" smooth="yes"/>
      <point x="170" y="605"/>
      <point x="192" y="597"/>
      <point x="182" y="569" type="curve" smooth="yes"/>
      <point x="49" y="141" type="line" smooth="yes"/>
      <point x="41" y="112"/>
      <point x="14" y="105"/>
      <point x="-15" y="105" type="curve" smooth="yes"/>
      <point x="-23" y="105" type="line"/>
      <point x="-51" y="10" type="line"/>
      <point x="456" y="10" type="line" smooth="yes"/>
      <point x="689" y="10"/>
      <point x="834" y="74"/>
      <point x="834" y="225" type="curve"/>
      <point x="834" y="305"/>
      <point x="749" y="358"/>
      <point x="602" y="367" type="curve"/>
      <point x="629" y="356" type="line"/>
      <point x="636" y="378" type="line"/>
    </contour>
    <contour>
      <point x="351" y="405" type="line"/>
      <point x="421" y="627" type="line"/>
      <point x="559" y="627" type="line"/>
      <point x="633" y="627"/>
      <point x="660" y="604"/>
      <point x="660" y="561" type="curve" smooth="yes"/>
      <point x="660" y="487"/>
      <point x="626" y="405"/>
      <point x="529" y="405" type="curve" smooth="yes"/>
    </contour>
    <contour>
      <point x="252" y="82" type="line"/>
      <point x="332" y="339" type="line"/>
      <point x="490" y="339" type="line" smooth="yes"/>
      <point x="573" y="339"/>
      <point x="596" y="307"/>
      <point x="596" y="271" type="curve" smooth="yes"/>
      <point x="596" y="172"/>
      <point x="551" y="82"/>
      <point x="441" y="82" type="curve" smooth="yes"/>
    </contour>
  </outline>
</glyph>
<glyph name="two.oldprop" format="2">
  <advance width="732"/>
  <outline>
    <contour>
      <point x="667" y="173" type="line"/>
      <point x="47" y="173" type="line"/>
      <point x="58" y="159" type="line"/>
      <point x="535" y="259"/>
      <point x="719" y="278"/>
      <point x="719" y="477" type="curve" smooth="yes"/>
      <point x="719" y="592"/>
      <point x="619" y="655"/>
      <point x="404" y="655" type="curve" smooth="yes"/>
      <point x="283" y="655"/>
      <point x="181" y="630"/>
      <point x="122" y="613" type="curve"/>
      <point x="63" y="408" type="line"/>
      <point x="263" y="408" type="line"/>
      <point x="313" y="576" type="line"/>
      <point x="274" y="570"/>
      <point x="246" y="551"/>
      <point x="254" y="537" type="curve"/>
      <point x="284" y="547"/>
      <point x="328" y="556"/>
      <point x="369" y="556" type="curve" smooth="yes"/>
      <point x="439" y="556"/>
      <point x="458" y="538"/>
      <point x="458" y="490" type="curve" smooth="yes"/>
      <point x="458" y="373"/>
      <point x="428" y="311"/>
      <point x="11" y="214" type="curve"/>
      <point x="-50" y="0" type="line"/>
      <point x="618" y="0" type="line"/>
    </contour>
  </outline>
</glyph>
<glyph name="yen.proportional" format="2">
  <advance width="808"/>
  <outline>
    <contour>
      <point x="88" y="417" type="line"/>
      <point x="64" y="335" type="line"/>
      <point x="712" y="335" type="line"/>
      <point x="736" y="417" type="line"/>
    </contour>
    <contour>
      <point x="46" y="226" type="line"/>
      <point x="22" y="144" type="line"/>
      <point x="669" y="144" type="line"/>
      <point x="693" y="226" type="line"/>
    </contour>
    <contour>
      <point x="499" y="328" type="line"/>
      <point x="757" y="563" type="line" smooth="yes"/>
      <point x="789" y="592"/>
      <point x="812" y="610"/>
      <point x="849" y="610" type="curve" smooth="yes"/>
      <point x="855" y="610" type="line"/>
      <point x="885" y="710" type="line"/>
      <point x="640" y="710" type="line"/>
      <point x="611" y="610" type="line"/>
      <point x="615" y="610" type="line" smooth="yes"/>
      <point x="649" y="610"/>
      <point x="679" y="600"/>
      <point x="675" y="587" type="curve"/>
      <point x="439" y="370" type="line"/>
      <point x="501" y="370" type="line"/>
      <point x="413" y="599" type="line"/>
      <point x="414" y="606"/>
      <point x="445" y="610"/>
      <point x="476" y="610" type="curve" smooth="yes"/>
      <point x="488" y="610" type="line"/>
      <point x="517" y="710" type="line"/>
      <point x="138" y="710" type="line"/>
      <point x="107" y="610" type="line"/>
      <point x="114" y="610" type="line" smooth="yes"/>
      <point x="149" y="610"/>
      <point x="162" y="602"/>
      <point x="173" y="576" type="curve" smooth="yes"/>
      <point x="282" y="329" type="line"/>
    </contour>
    <contour>
      <point x="531" y="374" type="line"/>
      <point x="284" y="374" type="line"/>
      <point x="210" y="137" type="line" smooth="yes"/>
      <point x="200" y="108"/>
      <point x="167" y="101"/>
      <point x="131" y="101" type="curve" smooth="yes"/>
      <point x="105" y="101" type="line"/>
      <point x="75" y="0" type="line"/>
      <point x="510" y="0" type="line"/>
      <point x="541" y="101" type="line"/>
      <point x="513" y="101" type="line" smooth="yes"/>
      <point x="478" y="101"/>
      <point x="448" y="108"/>
      <point x="457" y="137" type="curve" smooth="yes"/>
    </contour>
  </outline>
</glyph>
<glyph name="zero.slashlintab" format="2">
  <advance width="686"/>
  <outline>
    <contour>
      <point x="266" y="-11" type="curve" smooth="yes"/>
      <point x="554" y="-11"/>
      <point x="672" y="307"/>
      <point x="672" y="520" type="curve" smooth="yes"/>
      <point x="672" y="644"/>
      <point x="588" y="735"/>
      <point x="420" y="735" type="curve" smooth="yes"/>
      <point x="132" y="735"/>
      <point x="14" y="417"/>
      <point x="14" y="205" type="curve" smooth="yes"/>
      <point x="14" y="80"/>
      <point x="98" y="-11"/>
    </contour>
    <contour>
      <point x="273" y="88" type="curve" smooth="yes"/>
      <point x="233" y="88"/>
      <point x="224" y="99"/>
      <point x="224" y="125" type="curve" smooth="yes"/>
      <point x="224" y="161"/>
      <point x="238" y="242"/>
      <point x="277" y="380" type="curve" smooth="yes"/>
      <point x="345" y="607"/>
      <point x="366" y="636"/>
      <point x="413" y="636" type="curve" smooth="yes"/>
      <point x="453" y="636"/>
      <point x="462" y="625"/>
      <point x="462" y="600" type="curve" smooth="yes"/>
      <point x="462" y="563"/>
      <point x="448" y="482"/>
      <point x="409" y="344" type="curve" smooth="yes"/>
      <point x="341" y="117"/>
      <point x="320" y="88"/>
    </contour>
    <contour>
      <point x="114" y="149" type="line"/>
      <point x="587" y="489" type="line"/>
      <point x="577" y="575" type="line"/>
      <point x="101" y="232" type="line"/>
    </contour>
  </outline>
</glyph>
<glyph name="zero.slasholdprop" format="2">
  <advance width="836"/>
  <outline>
    <contour>
      <point x="187" y="108" type="line"/>
      <point x="660" y="448" type="line"/>
      <point x="651" y="535" type="line"/>
      <point x="174" y="192" type="line"/>
    </contour>
    <contour>
      <point x="471" y="556" type="curve" smooth="yes"/>
      <point x="543" y="556"/>
      <point x="563" y="535"/>
      <point x="563" y="487" type="curve" smooth="yes"/>
      <point x="563" y="449"/>
      <point x="551" y="388"/>
      <point x="527" y="306" type="curve" smooth="yes"/>
      <point x="472" y="128"/>
      <point x="438" y="88"/>
      <point x="365" y="88" type="curve" smooth="yes"/>
      <point x="293" y="88"/>
      <point x="272" y="110"/>
      <point x="272" y="157" type="curve" smooth="yes"/>
      <point x="272" y="195"/>
      <point x="284" y="257"/>
      <point x="308" y="338" type="curve" smooth="yes"/>
      <point x="363" y="516"/>
      <point x="397" y="556"/>
    </contour>
    <contour>
      <point x="471" y="655" type="curve" smooth="yes"/>
      <point x="155" y="655"/>
      <point x="38" y="426"/>
      <point x="38" y="229" type="curve" smooth="yes"/>
      <point x="38" y="68"/>
      <point x="170" y="-11"/>
      <point x="365" y="-11" type="curve" smooth="yes"/>
      <point x="680" y="-11"/>
      <point x="797" y="218"/>
      <point x="797" y="415" type="curve" smooth="yes"/>
      <point x="797" y="576"/>
      <point x="667" y="655"/>
    </contour>
  </outline>
</glyph>
